<svg xmlns="http://www.w3.org/2000/svg" xmlns:xlink="http://www.w3.org/1999/xlink" version="1.1" width="1000" height="1000" viewBox="0 0 1000 1000" xml:space="preserve">
<desc>Created with Fabric.js 3.5.0</desc>
<defs>
</defs>
<rect x="0" y="0" width="100%" height="100%" fill="#ffffff"/>
<g transform="matrix(37.8788 0 0 37.8788 500.0001 500.0001)" id="792714">
<path style="stroke: none; stroke-width: 1; stroke-dasharray: none; stroke-linecap: butt; stroke-dashoffset: 0; stroke-linejoin: miter; stroke-miterlimit: 4; is-custom-font: none; font-file-url: none; fill: rgb(10,102,194); fill-rule: nonzero; opacity: 1;" vector-effect="non-scaling-stroke" transform=" translate(-12, -12)" d="M 20.447 20.452 h -3.554 v -5.569 c 0 -1.328 -0.027 -3.037 -1.852 -3.037 c -1.853 0 -2.136 1.445 -2.136 2.939 v 5.667 H 9.351 V 9 h 3.414 v 1.561 h 0.046 c 0.477 -0.9 1.637 -1.85 3.37 -1.85 c 3.601 0 4.267 2.37 4.267 5.455 v 6.286 z M 5.337 7.433 c -1.144 0 -2.063 -0.926 -2.063 -2.065 c 0 -1.138 0.92 -2.063 2.063 -2.063 c 1.14 0 2.064 0.925 2.064 2.063 c 0 1.139 -0.925 2.065 -2.064 2.065 z m 1.782 13.019 H 3.555 V 9 h 3.564 v 11.452 z M 22.225 0 H 1.771 C 0.792 0 0 0.774 0 1.729 v 20.542 C 0 23.227 0.792 24 1.771 24 h 20.451 C 23.2 24 24 23.227 24 22.271 V 1.729 C 24 0.774 23.2 0 22.222 0 h 0.003 z" stroke-linecap="round"/>
</g>
</svg>